<svg width="48" height="24" viewBox="0 0 48 24" fill="none" xmlns="http://www.w3.org/2000/svg">
<path d="M10 7L11.763 8.74731C13.1689 10.1408 13.8719 10.8375 13.9801 11.6867C14.0066 11.8947 14.0066 12.1053 13.9801 12.3133C13.8719 13.1625 13.1689 13.8592 11.763 15.2527L10 17" stroke="white" stroke-width="1.5" stroke-linecap="round"/>
<path d="M34 7L35.763 8.74731C37.1689 10.1408 37.8719 10.8375 37.9801 11.6867C38.0066 11.8947 38.0066 12.1053 37.9801 12.3133C37.8719 13.1625 37.1689 13.8592 35.763 15.2527L34 17" stroke="white" stroke-opacity="0.3" stroke-width="1.5" stroke-linecap="round"/>
<path d="M22 7L23.763 8.74731C25.1689 10.1408 25.8719 10.8375 25.9801 11.6867C26.0066 11.8947 26.0066 12.1053 25.9801 12.3133C25.8719 13.1625 25.1689 13.8592 23.763 15.2527L22 17" stroke="white" stroke-opacity="0.6" stroke-width="1.5" stroke-linecap="round"/>
</svg>
