<svg width="32" height="32" viewBox="0 0 32 32" fill="none" xmlns="http://www.w3.org/2000/svg">
<path d="M6.7481 26.7268L7.18894 26.12L6.7481 26.7268ZM5.27322 25.2519L5.87998 24.8111L5.27322 25.2519ZM26.7268 25.2519L26.12 24.8111L26.7268 25.2519ZM25.2519 26.7268L24.8111 26.12L25.2519 26.7268ZM25.2519 5.27322L24.8111 5.87998L25.2519 5.27322ZM26.7268 6.7481L26.12 7.18894L26.7268 6.7481ZM6.7481 5.27322L7.18894 5.87998L6.7481 5.27322ZM5.27322 6.7481L5.87998 7.18894L5.27322 6.7481ZM13.7019 12.9648C13.409 12.6719 12.9341 12.6719 12.6412 12.9648C12.3483 13.2577 12.3483 13.7325 12.6412 14.0254L13.7019 12.9648ZM18.2981 19.6823C18.591 19.9752 19.0659 19.9752 19.3588 19.6823C19.6517 19.3894 19.6517 18.9145 19.3588 18.6216L18.2981 19.6823ZM12.6412 18.6216C12.3483 18.9145 12.3483 19.3894 12.6412 19.6823C12.9341 19.9752 13.409 19.9752 13.7019 19.6823L12.6412 18.6216ZM19.3588 14.0254C19.6517 13.7325 19.6517 13.2577 19.3588 12.9648C19.0659 12.6719 18.591 12.6719 18.2981 12.9648L19.3588 14.0254ZM16 27.25C13.4835 27.25 11.6563 27.249 10.2371 27.0952C8.83198 26.943 7.916 26.6483 7.18894 26.12L6.30726 27.3335C7.33264 28.0785 8.54278 28.4204 10.0756 28.5865C11.5943 28.751 13.5169 28.75 16 28.75V27.25ZM3.25 16C3.25 18.4831 3.24897 20.4057 3.41352 21.9244C3.57958 23.4572 3.92148 24.6674 4.66646 25.6927L5.87998 24.8111C5.35174 24.084 5.05703 23.168 4.90479 21.7629C4.75103 20.3437 4.75 18.5165 4.75 16H3.25ZM7.18894 26.12C6.68664 25.7551 6.24492 25.3134 5.87998 24.8111L4.66646 25.6927C5.12391 26.3224 5.67762 26.8761 6.30726 27.3335L7.18894 26.12ZM27.25 16C27.25 18.5165 27.249 20.3437 27.0952 21.7629C26.943 23.168 26.6483 24.084 26.12 24.8111L27.3335 25.6927C28.0785 24.6674 28.4204 23.4572 28.5865 21.9244C28.751 20.4057 28.75 18.4831 28.75 16H27.25ZM16 28.75C18.4831 28.75 20.4057 28.751 21.9244 28.5865C23.4572 28.4204 24.6674 28.0785 25.6927 27.3335L24.8111 26.12C24.084 26.6483 23.168 26.943 21.7629 27.0952C20.3437 27.249 18.5165 27.25 16 27.25V28.75ZM26.12 24.8111C25.7551 25.3134 25.3134 25.7551 24.8111 26.12L25.6927 27.3335C26.3224 26.8761 26.8761 26.3224 27.3335 25.6927L26.12 24.8111ZM16 4.75C18.5165 4.75 20.3437 4.75103 21.7629 4.90479C23.168 5.05703 24.084 5.35174 24.8111 5.87998L25.6927 4.66646C24.6674 3.92148 23.4572 3.57958 21.9244 3.41352C20.4057 3.24897 18.4831 3.25 16 3.25V4.75ZM28.75 16C28.75 13.5169 28.751 11.5943 28.5865 10.0756C28.4204 8.54278 28.0785 7.33264 27.3335 6.30726L26.12 7.18894C26.6483 7.916 26.943 8.83198 27.0952 10.2371C27.249 11.6563 27.25 13.4835 27.25 16H28.75ZM24.8111 5.87998C25.3134 6.24492 25.7551 6.68664 26.12 7.18894L27.3335 6.30726C26.8761 5.67762 26.3224 5.12391 25.6927 4.66646L24.8111 5.87998ZM16 3.25C13.5169 3.25 11.5943 3.24897 10.0756 3.41352C8.54278 3.57958 7.33264 3.92148 6.30726 4.66646L7.18894 5.87998C7.916 5.35174 8.83198 5.05703 10.2371 4.90479C11.6563 4.75103 13.4835 4.75 16 4.75V3.25ZM4.75 16C4.75 13.4835 4.75103 11.6563 4.90479 10.2371C5.05703 8.83198 5.35174 7.916 5.87998 7.18894L4.66646 6.30726C3.92148 7.33264 3.57958 8.54278 3.41352 10.0756C3.24897 11.5943 3.25 13.5169 3.25 16H4.75ZM6.30726 4.66646C5.67762 5.12391 5.12391 5.67762 4.66646 6.30726L5.87998 7.18894C6.24492 6.68664 6.68664 6.24492 7.18894 5.87998L6.30726 4.66646ZM12.6412 14.0254L18.2981 19.6823L19.3588 18.6216L13.7019 12.9648L12.6412 14.0254ZM13.7019 19.6823L19.3588 14.0254L18.2981 12.9648L12.6412 18.6216L13.7019 19.6823Z" fill="#FAFAFA"/>
</svg>
