<svg width="24" height="38" viewBox="0 0 24 38" fill="none" xmlns="http://www.w3.org/2000/svg">
<path fill-rule="evenodd" clip-rule="evenodd" d="M12 2.09815e-06C5.37258 9.39372e-07 -9.39371e-07 5.37258 -2.09815e-06 12L-4.54598e-06 26C-5.70476e-06 32.6274 5.37258 38 12 38C18.6274 38 24 32.6274 24 26L24 12C24 5.37259 18.6274 3.25692e-06 12 2.09815e-06ZM12 8C11.1716 8 10.5 8.67157 10.5 9.5L10.5 16.5C10.5 17.3284 11.1716 18 12 18C12.8284 18 13.5 17.3284 13.5 16.5L13.5 9.5C13.5 8.67158 12.8284 8 12 8Z" fill="white"/>
</svg>
