<svg width="16" height="16" viewBox="0 0 16 16" fill="none" xmlns="http://www.w3.org/2000/svg">
<path d="M6.78963 2.07501C7.05848 1.80456 7.35687 1.58037 7.73818 1.51949C7.81942 1.50652 7.90137 1.5 7.98345 1.5C8.06553 1.5 8.14748 1.50652 8.22872 1.51949C8.61003 1.58037 8.90842 1.80456 9.17727 2.07501C9.43925 2.33856 9.73194 2.7085 10.0867 3.15682L11.0355 4.35602C11.2067 4.5724 11.1704 4.88689 10.9545 5.05846C10.7386 5.23002 10.4248 5.19369 10.2536 4.97731L9.32361 3.802C8.95225 3.33265 8.69706 3.01131 8.4824 2.79301V11.3333C8.4824 11.6095 8.25901 11.8333 7.98345 11.8333C7.70789 11.8333 7.4845 11.6095 7.4845 11.3333V2.79301C7.26984 3.01131 7.01465 3.33265 6.64328 3.802L5.71334 4.97731C5.54214 5.19369 5.2283 5.23002 5.01238 5.05846C4.79645 4.88689 4.7602 4.5724 4.93141 4.35602L5.88024 3.15683C6.23494 2.70852 6.52766 2.33855 6.78963 2.07501Z" fill="white"/>
<path d="M13.7048 7.03304C13.5393 6.81225 13.2265 6.7677 13.0062 6.93355C12.7859 7.09939 12.7414 7.41283 12.9069 7.63362C13.2618 8.10711 13.4719 8.69491 13.4719 9.33333V10C13.4719 10.6384 13.4704 10.8995 13.4371 11.1099C13.2455 12.3223 12.2966 13.2731 11.0868 13.4651C10.8768 13.4984 10.6164 13.5 9.97926 13.5H5.98764C5.35054 13.5 5.09008 13.4984 4.88007 13.4651C3.67025 13.2731 2.72141 12.3223 2.52979 11.1099C2.49653 10.8995 2.49498 10.6384 2.49498 10V9.33333C2.49498 8.69491 2.70509 8.10711 3.06 7.63362C3.2255 7.41283 3.18104 7.09939 2.96071 6.93355C2.74038 6.7677 2.42761 6.81225 2.26211 7.03304C1.78185 7.67376 1.49708 8.47094 1.49708 9.33333L1.49707 10.0539C1.49703 10.6219 1.497 10.9679 1.54417 11.2663C1.80342 12.9066 3.08715 14.193 4.72396 14.4528C5.02179 14.5001 5.36706 14.5 5.93389 14.5H10.033C10.5998 14.5 10.9451 14.5001 11.2429 14.4528C12.8797 14.193 14.1635 12.9066 14.4227 11.2663C14.4699 10.9679 14.4699 10.6219 14.4698 10.0539L14.4698 9.33333C14.4698 8.47094 14.185 7.67376 13.7048 7.03304Z" fill="white"/>
</svg>
